<svg width="30" height="30" viewBox="0 0 30 30" fill="none" xmlns="http://www.w3.org/2000/svg">
<path opacity="0.3" d="M0.0309448 15.0017C0.0309448 23.2678 6.73395 29.9707 14.9999 29.9707C23.2661 29.9707 29.9691 23.2678 29.9691 15.0017C29.9723 6.73231 23.2695 0.0292969 14.9999 0.0292969C6.73395 0.0292969 0.0309448 6.73231 0.0309448 15.0017Z" fill="white"/>
<path opacity="0.4" d="M25.9822 25.1133C25.5821 23.0123 21.8912 21.0055 18.5801 19.9096C18.4187 19.8558 17.4103 19.4021 18.0421 17.4893H18.0355C19.6792 15.7984 20.9364 13.0756 20.9364 10.3963C20.9364 6.2785 18.1934 4.117 15.0033 4.117C11.8131 4.117 9.08353 6.27516 9.08353 10.3963C9.08353 13.0857 10.3341 15.8186 11.988 17.506C12.6334 19.1936 11.4805 19.8222 11.2384 19.9096C8.08861 21.0458 4.42794 23.066 4.02443 25.1133C1.55377 22.4509 0.0309448 18.8944 0.0309448 14.9782C0.0309448 6.72223 6.73395 0.0292969 14.9999 0.0292969C23.2661 0.0292969 29.9691 6.72223 29.9691 14.9782C29.9723 18.8944 28.4495 22.4476 25.9822 25.1133Z" fill="white"/>
</svg>